# xmcd
#
# Track frame offsets: 
#        150
#        19660
#        30482
#        47230
#        65947
#        81032
#        95955
#        110645
#        122860
#        141182
#        157997
#        172575
#        187737
#        203227
#        218340
#        232895
#        247420
#        259860
#        273797
#        286527
#
# Disc length: 4017 seconds
#
# Revision: 5
# Processed by: cddbd v1.5.2PL0 Copyright (c) Steve Scherf et al.
# Submitted via: ExactAudioCopy v1.0b4
#
DISCID=150faf14
DTITLE=Amado Batista - O Essencial de
DYEAR=1999
DGENRE=Blues
TTITLE0=Seresteiro Das Noites
TTITLE1=Meu Ex-Amor
TTITLE2=Escuta
TTITLE3=Dinamite de Amor
TTITLE4=Menininha Meu Amor
TTITLE5=Hospício
TTITLE6=Chance
TTITLE7=Eu Sou Seu Fã
TTITLE8=Reclamando Sua Ausência
TTITLE9=Princesa
TTITLE10=Tum Tum de Saudade
TTITLE11=Vida Cor de Rosa
TTITLE12=Não Quero Falar Com Ela
TTITLE13=24 Horas no Ar
TTITLE14=Amar, Amar
TTITLE15=Tem Pena de Mim
TTITLE16=Morro de Ciúme Dela
TTITLE17=Onde Está Você
TTITLE18=Moreninha
TTITLE19=Monotonia
EXTD=
EXTT0=
EXTT1=
EXTT2=
EXTT3=
EXTT4=
EXTT5=
EXTT6=
EXTT7=
EXTT8=
EXTT9=
EXTT10=
EXTT11=
EXTT12=
EXTT13=
EXTT14=
EXTT15=
EXTT16=
EXTT17=
EXTT18=
EXTT19=
PLAYORDER=
